<svg xmlns="http://www.w3.org/2000/svg" xmlns:xlink="http://www.w3.org/1999/xlink" xmlns:lucid="lucid" width="1124" height="472.56"><g transform="translate(-98 600.5)" lucid:page-tab-id="0_0"><path d="M0-1258.84h1870.87V64H0z" fill="#fff"/><path d="M180.5-355a5 5 0 0 1 5-5h270a5 5 0 0 1 5 5v190a5 5 0 0 1-5 5h-270a5 5 0 0 1-5-5z" fill="#fff"/><path d="M180.5-320v-35a5 5 0 0 1 5-5h270a5 5 0 0 1 5 5v35" fill="#ced4db"/><path d="M180.5-355a5 5 0 0 1 5-5h270a5 5 0 0 1 5 5v190a5 5 0 0 1-5 5h-270a5 5 0 0 1-5-5zM180.5-320h280M320.5-320v160" stroke="#282c33" fill="none"/><use xlink:href="#a" transform="matrix(1,0,0,1,190.5,-360) translate(0 23.6)"/><use xlink:href="#b" transform="matrix(1,0,0,1,185.5,-317.5) translate(0 17.1)"/><use xlink:href="#c" transform="matrix(1,0,0,1,325.5,-317.5) translate(0 17.1)"/><use xlink:href="#d" transform="matrix(1,0,0,1,185.5,-285.5) translate(0 17.1)"/><use xlink:href="#e" transform="matrix(1,0,0,1,325.5,-285.5) translate(0 17.1)"/><use xlink:href="#f" transform="matrix(1,0,0,1,185.5,-253.5) translate(0 17.1)"/><use xlink:href="#e" transform="matrix(1,0,0,1,325.5,-253.5) translate(0 17.1)"/><use xlink:href="#g" transform="matrix(1,0,0,1,185.5,-221.5) translate(0 17.1)"/><use xlink:href="#h" transform="matrix(1,0,0,1,325.5,-221.5) translate(0 17.1)"/><use xlink:href="#g" transform="matrix(1,0,0,1,185.5,-189.5) translate(0 17.1)"/><use xlink:href="#h" transform="matrix(1,0,0,1,325.5,-189.5) translate(0 17.1)"/><path d="M180.5-575a5 5 0 0 1 5-5H455a5 5 0 0 1 5 5v190a5 5 0 0 1-5 5H185.5a5 5 0 0 1-5-5z" fill="#fff"/><path d="M180.5-540v-35a5 5 0 0 1 5-5H455a5 5 0 0 1 5 5v35" fill="#ced4db"/><path d="M180.5-575a5 5 0 0 1 5-5H455a5 5 0 0 1 5 5v190a5 5 0 0 1-5 5H185.5a5 5 0 0 1-5-5zM180.5-540H460M318.78-540v160" stroke="#282c33" fill="none"/><use xlink:href="#i" transform="matrix(1,0,0,1,190.5,-580) translate(0 23.6)"/><use xlink:href="#b" transform="matrix(1,0,0,1,185.5,-537.5) translate(0 17.1)"/><use xlink:href="#c" transform="matrix(1,0,0,1,323.77983457586146,-537.5) translate(0 17.1)"/><use xlink:href="#j" transform="matrix(1,0,0,1,185.5,-505.5) translate(0 17.1)"/><use xlink:href="#c" transform="matrix(1,0,0,1,323.77983457586146,-505.5) translate(0 17.1)"/><use xlink:href="#k" transform="matrix(1,0,0,1,185.5,-473.5) translate(0 17.1)"/><use xlink:href="#l" transform="matrix(1,0,0,1,323.77983457586146,-473.5) translate(0 17.1)"/><use xlink:href="#m" transform="matrix(1,0,0,1,185.5,-441.5) translate(0 17.1)"/><use xlink:href="#l" transform="matrix(1,0,0,1,323.77983457586146,-441.5) translate(0 17.1)"/><use xlink:href="#n" transform="matrix(1,0,0,1,185.5,-409.5) translate(0 17.1)"/><use xlink:href="#o" transform="matrix(1,0,0,1,323.77983457586146,-409.5) translate(0 17.1)"/><path d="M520-575a5 5 0 0 1 5-5h269.5a5 5 0 0 1 5 5v94a5 5 0 0 1-5 5H525a5 5 0 0 1-5-5z" fill="#fff"/><path d="M520-540v-35a5 5 0 0 1 5-5h269.5a5 5 0 0 1 5 5v35" fill="#ced4db"/><path d="M520-575a5 5 0 0 1 5-5h269.5a5 5 0 0 1 5 5v94a5 5 0 0 1-5 5H525a5 5 0 0 1-5-5zM520-540h279.5M658.28-540v64" stroke="#282c33" fill="none"/><use xlink:href="#n" transform="matrix(1,0,0,1,530,-580) translate(0 23.6)"/><use xlink:href="#p" transform="matrix(1,0,0,1,525,-537.5) translate(0 17.1)"/><use xlink:href="#l" transform="matrix(1,0,0,1,663.2798345758615,-537.5) translate(0 17.1)"/><use xlink:href="#q" transform="matrix(1,0,0,1,525,-505.5) translate(0 17.1)"/><use xlink:href="#r" transform="matrix(1,0,0,1,663.2798345758615,-505.5) translate(0 17.1)"/><use xlink:href="#s" transform="matrix(1,0,0,1,663.2798345758615,-505.5) translate(56.95 17.1)"/><path d="M520-355a5 5 0 0 1 5-5h269.5a5 5 0 0 1 5 5v126a5 5 0 0 1-5 5H525a5 5 0 0 1-5-5z" fill="#fff"/><path d="M520-320v-35a5 5 0 0 1 5-5h269.5a5 5 0 0 1 5 5v35" fill="#ced4db"/><path d="M520-355a5 5 0 0 1 5-5h269.5a5 5 0 0 1 5 5v126a5 5 0 0 1-5 5H525a5 5 0 0 1-5-5zM520-320h279.5M658.28-320v96" stroke="#282c33" fill="none"/><use xlink:href="#t" transform="matrix(1,0,0,1,530,-360) translate(0 23.6)"/><use xlink:href="#u" transform="matrix(1,0,0,1,525,-317.5) translate(0 17.1)"/><use xlink:href="#o" transform="matrix(1,0,0,1,663.2798345758615,-317.5) translate(0 17.1)"/><use xlink:href="#v" transform="matrix(1,0,0,1,525,-285.5) translate(0 17.1)"/><use xlink:href="#e" transform="matrix(1,0,0,1,663.2798345758615,-285.5) translate(0 17.1)"/><use xlink:href="#w" transform="matrix(1,0,0,1,525,-253.5) translate(0 17.1)"/><use xlink:href="#l" transform="matrix(1,0,0,1,663.2798345758615,-253.5) translate(0 17.1)"/><path d="M499.5-340h-9.14a.1.1 0 0 1-.1-.1.1.1 0 0 0-.13-.13H481" stroke="#3a414a" fill="none"/><path d="M499.5-350v20M519.5-340h-20M481-330.23v-20M461-340.23h20" stroke="#3a414a" fill="#fff"/><path d="M900-575a5 5 0 0 1 5-5h269.5a5 5 0 0 1 5 5v94a5 5 0 0 1-5 5H905a5 5 0 0 1-5-5z" fill="#fff"/><path d="M900-540v-35a5 5 0 0 1 5-5h269.5a5 5 0 0 1 5 5v35" fill="#ced4db"/><path d="M900-575a5 5 0 0 1 5-5h269.5a5 5 0 0 1 5 5v94a5 5 0 0 1-5 5H905a5 5 0 0 1-5-5zM900-540h279.5M1038.28-540v64" stroke="#282c33" fill="none"/><use xlink:href="#x" transform="matrix(1,0,0,1,910,-580) translate(0 23.6)"/><use xlink:href="#b" transform="matrix(1,0,0,1,905,-537.5) translate(0 17.1)"/><use xlink:href="#c" transform="matrix(1,0,0,1,1043.2798345758615,-537.5) translate(0 17.1)"/><use xlink:href="#y" transform="matrix(1,0,0,1,905,-505.5) translate(0 17.1)"/><use xlink:href="#c" transform="matrix(1,0,0,1,1043.2798345758615,-505.5) translate(0 17.1)"/><path d="M900-395a5 5 0 0 1 5-5h269.5a5 5 0 0 1 5 5v126a5 5 0 0 1-5 5H905a5 5 0 0 1-5-5z" fill="#fff"/><path d="M900-360v-35a5 5 0 0 1 5-5h269.5a5 5 0 0 1 5 5v35" fill="#ced4db"/><path d="M900-395a5 5 0 0 1 5-5h269.5a5 5 0 0 1 5 5v126a5 5 0 0 1-5 5H905a5 5 0 0 1-5-5zM900-360h279.5M1038.28-360v96" stroke="#282c33" fill="none"/><use xlink:href="#z" transform="matrix(1,0,0,1,910,-400) translate(0 23.6)"/><use xlink:href="#b" transform="matrix(1,0,0,1,905,-357.5) translate(0 17.1)"/><use xlink:href="#c" transform="matrix(1,0,0,1,1043.2798345758615,-357.5) translate(0 17.1)"/><use xlink:href="#A" transform="matrix(1,0,0,1,905,-325.5) translate(0 17.1)"/><use xlink:href="#o" transform="matrix(1,0,0,1,1043.2798345758615,-325.5) translate(0 17.1)"/><use xlink:href="#B" transform="matrix(1,0,0,1,905,-293.5) translate(0 17.1)"/><use xlink:href="#o" transform="matrix(1,0,0,1,1043.2798345758615,-293.5) translate(0 17.1)"/><path d="M1200-312h14a6 6 0 0 0 6-6v-236a6 6 0 0 0-6-6h-14" stroke="#3a414a" fill="none"/><path d="M1200-302v-20M1180-312h20M1200-550v-20M1180-560h20" stroke="#3a414a" fill="#fff"/><path d="M879.5-280H846a6 6 0 0 0-6 6v138.06a6 6 0 0 1-6 6H106a6 6 0 0 1-6-6V-334.3a6 6 0 0 1 6-6h54.6" stroke="#3a414a" fill="none"/><path d="M879.5-290v20M899.5-280h-20" stroke="#3a414a" fill="#fff"/><path d="M179.78-330.3l-20-10 20-10" stroke="#3a414a" fill="#fff" fill-opacity="0"/><path d="M179.78-340.3h-20" stroke="#3a414a" fill="#fff"/><path d="M499.5-560H496a6 6 0 0 0-6 6v152.2a6 6 0 0 1-6 6h-3.5" stroke="#3a414a" fill="none"/><path d="M499.5-570v20M519.5-560h-20M480.5-385.8v-20M460.5-395.8h20" stroke="#3a414a" fill="#fff"/><path d="M820-491.87h14a6 6 0 0 1 6 6v139.7a6 6 0 0 1-6 6h-14.6" stroke="#3a414a" fill="none"/><path d="M820-481.87v-20M800-491.87h20" stroke="#3a414a" fill="#fff"/><path d="M800.22-350.17l20 10-20 10" stroke="#3a414a" fill="#fff" fill-opacity="0"/><path d="M800.22-340.17h20" stroke="#3a414a" fill="#fff"/><defs><path fill="#333" d="M66-151c12-25 30-51 66-40l-6 26C45-176 58-65 38 0H6l36-190h30" id="C"/><path fill="#333" d="M165-48c-4 18 1 34 23 27l-3 20c-29 8-62 0-52-35h-2C116-14 99 4 63 4 30 4 8-16 8-49c0-68 71-67 138-67 10-26 0-56-31-54-26 1-42 9-47 31l-32-5c8-67 160-71 144 15-5 28-9 54-15 81zM42-50c3 52 80 24 89-6 7-12 7-24 11-38-47 1-103-4-100 44" id="D"/><path fill="#333" d="M188 0h-37l-8-164L71 0H34L18-190h31l8 164 75-164h34l8 164 74-164h31" id="E"/><path fill="#333" d="M18-82l6-28h88l-6 28H18" id="F"/><path fill="#333" d="M248-111c6-24 9-61-24-58-72 9-57 108-77 169h-31l26-142c3-37-50-30-64-10C52-115 50-51 37 0H6l36-190h30c-1 10-6 24-4 32 13-43 101-52 105 5 13-22 29-41 61-41 90 0 28 129 23 194h-31" id="G"/><path fill="#333" d="M51-54c-9 22 5 41 31 30L79-1C43 14 10-4 19-52l22-115H19l5-23h22l19-43h21l-9 43h35l-4 23H73" id="H"/><path fill="#333" d="M111-194c62-3 86 47 72 106H45c-7 38 6 69 45 68 27-1 43-14 53-32l24 11C152-15 129 4 87 4 38 3 12-23 12-71c0-70 32-119 99-123zm44 81c14-66-71-72-95-28-4 8-8 17-11 28h106" id="I"/><path fill="#333" d="M50-231l6-30h32l-6 30H50zM6 0l37-190h31L37 0H6" id="J"/><path fill="#333" d="M6 0l50-261h32L37 0H6" id="K"/><g id="a"><use transform="matrix(0.05,0,0,0.05,0,0)" xlink:href="#C"/><use transform="matrix(0.05,0,0,0.05,5.95,0)" xlink:href="#D"/><use transform="matrix(0.05,0,0,0.05,15.949999999999998,0)" xlink:href="#E"/><use transform="matrix(0.05,0,0,0.05,28.899999999999995,0)" xlink:href="#F"/><use transform="matrix(0.05,0,0,0.05,34.85,0)" xlink:href="#G"/><use transform="matrix(0.05,0,0,0.05,49.800000000000004,0)" xlink:href="#D"/><use transform="matrix(0.05,0,0,0.05,59.800000000000004,0)" xlink:href="#H"/><use transform="matrix(0.05,0,0,0.05,64.80000000000001,0)" xlink:href="#I"/><use transform="matrix(0.05,0,0,0.05,74.80000000000001,0)" xlink:href="#C"/><use transform="matrix(0.05,0,0,0.05,80.75000000000001,0)" xlink:href="#J"/><use transform="matrix(0.05,0,0,0.05,84.70000000000002,0)" xlink:href="#D"/><use transform="matrix(0.05,0,0,0.05,94.70000000000002,0)" xlink:href="#K"/></g><path fill="#333" d="M67-158c22-48 132-52 116 29L158 0h-32l25-140c3-38-53-32-70-12C52-117 51-52 38 0H6l36-190h30" id="L"/><g id="b"><use transform="matrix(0.05,0,0,0.05,0,0)" xlink:href="#L"/><use transform="matrix(0.05,0,0,0.05,10,0)" xlink:href="#D"/><use transform="matrix(0.05,0,0,0.05,20,0)" xlink:href="#G"/><use transform="matrix(0.05,0,0,0.05,34.95,0)" xlink:href="#I"/></g><path fill="#333" d="M194-120c59 52 2 134-86 124-53-6-90-18-98-63l31-7c8 30 29 43 70 43 46 0 84-17 71-62-32-43-135-20-137-98-3-89 178-90 191-16l-30 9c-8-48-127-53-127 5 0 53 81 35 115 65" id="M"/><path fill="#333" d="M103-194c29 0 47 14 56 36 2-11 5-23 8-32h30L160-5C157 61 82 97 21 62 9 55 4 45 1 30l28-7c7 42 83 31 92-3 4-16 9-38 13-55-13 20-29 36-62 36-40 0-60-25-60-64 0-71 23-131 91-131zm4 24c-53 0-58 54-61 104-2 27 10 44 36 44 49 0 65-50 67-102 1-29-15-46-42-46" id="N"/><g id="c"><use transform="matrix(0.05,0,0,0.05,0,0)" xlink:href="#M"/><use transform="matrix(0.05,0,0,0.05,12,0)" xlink:href="#H"/><use transform="matrix(0.05,0,0,0.05,17,0)" xlink:href="#C"/><use transform="matrix(0.05,0,0,0.05,22.95,0)" xlink:href="#J"/><use transform="matrix(0.05,0,0,0.05,26.899999999999995,0)" xlink:href="#L"/><use transform="matrix(0.05,0,0,0.05,36.9,0)" xlink:href="#N"/></g><path fill="#333" d="M89 0H52L20-190h33L74-25l89-165h34" id="O"/><path fill="#333" d="M67 3c-93-2-31-127-26-193h32L48-50c-3 39 53 32 70 12 30-34 30-101 43-152h32L157 0h-30c1-10 6-24 4-33-14 20-29 37-64 36" id="P"/><path fill="#333" d="M67-162c32-53 139-36 121 50C175-51 163 2 97 4 68 4 52-11 42-31 38 6 28 39 22 75H-9l50-265h29c-1 10 0 20-3 28zm89 36c0-26-10-43-35-43-54 0-67 50-69 103-1 29 14 45 42 46 53 0 62-58 62-106" id="Q"/><path fill="#333" d="M30-147c31-64 166-65 159 27C183-49 158 1 86 4 9 8 1-88 30-147zM88-20c53 0 68-48 68-100 0-31-11-51-44-50-52 1-68 46-68 97 0 32 13 53 44 53" id="R"/><g id="d"><use transform="matrix(0.05,0,0,0.05,0,0)" xlink:href="#O"/><use transform="matrix(0.05,0,0,0.05,9,0)" xlink:href="#D"/><use transform="matrix(0.05,0,0,0.05,19,0)" xlink:href="#K"/><use transform="matrix(0.05,0,0,0.05,22.95,0)" xlink:href="#P"/><use transform="matrix(0.05,0,0,0.05,32.95,0)" xlink:href="#I"/><use transform="matrix(0.05,0,0,0.05,42.95,0)" xlink:href="#F"/><use transform="matrix(0.05,0,0,0.05,48.900000000000006,0)" xlink:href="#Q"/><use transform="matrix(0.05,0,0,0.05,58.900000000000006,0)" xlink:href="#I"/><use transform="matrix(0.05,0,0,0.05,68.9,0)" xlink:href="#C"/><use transform="matrix(0.05,0,0,0.05,74.50000000000001,0)" xlink:href="#F"/><use transform="matrix(0.05,0,0,0.05,80.45000000000002,0)" xlink:href="#H"/><use transform="matrix(0.05,0,0,0.05,85.45000000000002,0)" xlink:href="#R"/><use transform="matrix(0.05,0,0,0.05,95.45000000000002,0)" xlink:href="#L"/></g><path fill="#333" d="M219-77C219 17 104-2 11 0l48-248c73 2 169-15 169 57 0 38-24 54-60 60 29 5 51 21 51 54zm-26-111c0-44-62-31-105-33l-16 79c55 0 121 9 121-46zm-7 110c-1-49-69-36-119-38L50-27c61-1 137 12 136-51" id="S"/><path fill="#333" d="M14 0l48-248h34L48 0H14" id="T"/><g id="e"><use transform="matrix(0.05,0,0,0.05,0,0)" xlink:href="#S"/><use transform="matrix(0.05,0,0,0.05,12,0)" xlink:href="#J"/><use transform="matrix(0.05,0,0,0.05,15.949999999999998,0)" xlink:href="#N"/><use transform="matrix(0.05,0,0,0.05,25.950000000000003,0)" xlink:href="#T"/><use transform="matrix(0.05,0,0,0.05,30.950000000000003,0)" xlink:href="#L"/><use transform="matrix(0.05,0,0,0.05,40.95,0)" xlink:href="#H"/></g><path fill="#333" d="M67-158c15-20 31-36 64-36 94 0 33 127 27 194h-32l25-140c3-38-53-32-70-12C52-117 51-51 37 0H6l51-261h31" id="U"/><path fill="#333" d="M44-68c0 29 11 47 38 47 30 0 42-19 51-41l28 9C148-21 126 4 82 4 31 4 10-29 12-85c3-77 74-140 146-93 12 8 15 23 18 40l-31 5c-1-22-13-36-36-36-52 0-65 49-65 101" id="V"/><path fill="#333" d="M68-162c25-46 127-43 121 31C183-60 169 1 98 4 69 5 53-11 43-31L36 0H5l52-261h31zm88 36c2-27-9-43-34-43-55 0-70 51-70 103 0 29 15 45 43 46 52 0 58-58 61-106" id="W"/><g id="f"><use transform="matrix(0.05,0,0,0.05,0,0)" xlink:href="#E"/><use transform="matrix(0.05,0,0,0.05,12.950000000000001,0)" xlink:href="#I"/><use transform="matrix(0.05,0,0,0.05,22.950000000000003,0)" xlink:href="#J"/><use transform="matrix(0.05,0,0,0.05,26.900000000000002,0)" xlink:href="#N"/><use transform="matrix(0.05,0,0,0.05,36.900000000000006,0)" xlink:href="#U"/><use transform="matrix(0.05,0,0,0.05,46.900000000000006,0)" xlink:href="#H"/><use transform="matrix(0.05,0,0,0.05,51.900000000000006,0)" xlink:href="#F"/><use transform="matrix(0.05,0,0,0.05,57.85,0)" xlink:href="#N"/><use transform="matrix(0.05,0,0,0.05,67.85000000000001,0)" xlink:href="#F"/><use transform="matrix(0.05,0,0,0.05,73.80000000000001,0)" xlink:href="#V"/><use transform="matrix(0.05,0,0,0.05,82.80000000000001,0)" xlink:href="#P"/><use transform="matrix(0.05,0,0,0.05,92.80000000000001,0)" xlink:href="#W"/><use transform="matrix(0.05,0,0,0.05,102.80000000000001,0)" xlink:href="#J"/><use transform="matrix(0.05,0,0,0.05,106.75,0)" xlink:href="#V"/></g><path fill="#333" d="M87-220l-18 92h140l-5 28H64L45 0H11l48-248h178l-5 28H87" id="X"/><path fill="#333" d="M133-28C103 26-5 8 13-77c13-62 24-115 90-117 29-1 46 15 56 35l19-102h32L160 0h-30zM45-64c-2 27 10 43 35 43 54-1 69-50 69-103 0-29-15-46-42-46-53-1-58 58-62 106" id="Y"/><g id="g"><use transform="matrix(0.05,0,0,0.05,0,0)" xlink:href="#X"/><use transform="matrix(0.05,0,0,0.05,10.950000000000001,0)" xlink:href="#J"/><use transform="matrix(0.05,0,0,0.05,14.9,0)" xlink:href="#I"/><use transform="matrix(0.05,0,0,0.05,24.900000000000002,0)" xlink:href="#K"/><use transform="matrix(0.05,0,0,0.05,28.85,0)" xlink:href="#Y"/></g><path fill="#333" d="M151-220L108 0H75l42-220H32l6-28h203l-5 28h-85" id="Z"/><path fill="#333" d="M198-190L69 30C53 58 25 83-20 72c4-11-1-27 19-22 33-1 43-29 59-52L20-190h32L79-34l84-156h35" id="aa"/><g id="h"><use transform="matrix(0.05,0,0,0.05,0,0)" xlink:href="#Z"/><use transform="matrix(0.05,0,0,0.05,9.600000000000001,0)" xlink:href="#aa"/><use transform="matrix(0.05,0,0,0.05,18.6,0)" xlink:href="#Q"/><use transform="matrix(0.05,0,0,0.05,28.6,0)" xlink:href="#I"/></g><path fill="#333" d="M55-144c13 50 104 24 104 88C159 21 15 23 1-39l26-10c6 40 102 42 102-4-13-50-104-23-104-87 0-71 143-71 148-8l-29 4c-5-35-85-37-89 0" id="ab"/><g id="i"><use transform="matrix(0.05,0,0,0.05,0,0)" xlink:href="#P"/><use transform="matrix(0.05,0,0,0.05,10,0)" xlink:href="#ab"/><use transform="matrix(0.05,0,0,0.05,19,0)" xlink:href="#I"/><use transform="matrix(0.05,0,0,0.05,29,0)" xlink:href="#C"/></g><g id="j"><use transform="matrix(0.05,0,0,0.05,0,0)" xlink:href="#P"/><use transform="matrix(0.05,0,0,0.05,10,0)" xlink:href="#ab"/><use transform="matrix(0.05,0,0,0.05,19,0)" xlink:href="#I"/><use transform="matrix(0.05,0,0,0.05,29,0)" xlink:href="#C"/><use transform="matrix(0.05,0,0,0.05,34.95,0)" xlink:href="#L"/><use transform="matrix(0.05,0,0,0.05,44.95,0)" xlink:href="#D"/><use transform="matrix(0.05,0,0,0.05,54.95,0)" xlink:href="#G"/><use transform="matrix(0.05,0,0,0.05,69.9,0)" xlink:href="#I"/></g><g id="k"><use transform="matrix(0.05,0,0,0.05,0,0)" xlink:href="#D"/><use transform="matrix(0.05,0,0,0.05,10,0)" xlink:href="#N"/><use transform="matrix(0.05,0,0,0.05,20,0)" xlink:href="#I"/></g><path fill="#333" d="M173 0L80-213 41 0H11l48-248h37l94 214 40-214h30L212 0h-39" id="ac"/><g id="l"><use transform="matrix(0.05,0,0,0.05,0,0)" xlink:href="#ac"/><use transform="matrix(0.05,0,0,0.05,12.950000000000001,0)" xlink:href="#P"/><use transform="matrix(0.05,0,0,0.05,22.950000000000003,0)" xlink:href="#G"/><use transform="matrix(0.05,0,0,0.05,37.900000000000006,0)" xlink:href="#W"/><use transform="matrix(0.05,0,0,0.05,47.900000000000006,0)" xlink:href="#I"/><use transform="matrix(0.05,0,0,0.05,57.900000000000006,0)" xlink:href="#C"/></g><g id="m"><use transform="matrix(0.05,0,0,0.05,0,0)" xlink:href="#J"/><use transform="matrix(0.05,0,0,0.05,3.95,0)" xlink:href="#Y"/></g><path fill="#333" d="M76-167L44 0H12l33-167H18l4-23h27c3-47 25-81 82-69l-4 24c-35-8-44 15-46 45h37l-5 23H76" id="ad"/><g id="n"><use transform="matrix(0.05,0,0,0.05,0,0)" xlink:href="#Q"/><use transform="matrix(0.05,0,0,0.05,10,0)" xlink:href="#R"/><use transform="matrix(0.05,0,0,0.05,20,0)" xlink:href="#C"/><use transform="matrix(0.05,0,0,0.05,25.950000000000003,0)" xlink:href="#H"/><use transform="matrix(0.05,0,0,0.05,30.950000000000003,0)" xlink:href="#D"/><use transform="matrix(0.05,0,0,0.05,40.95,0)" xlink:href="#ad"/><use transform="matrix(0.05,0,0,0.05,45.95,0)" xlink:href="#R"/><use transform="matrix(0.05,0,0,0.05,55.95,0)" xlink:href="#K"/><use transform="matrix(0.05,0,0,0.05,59.900000000000006,0)" xlink:href="#J"/><use transform="matrix(0.05,0,0,0.05,63.85,0)" xlink:href="#R"/></g><path fill="#333" d="M20-101c0-91 52-143 145-150 126-9 127 168 53 223-23 17-55 32-93 32C57 4 20-33 20-101zm216-33c5-57-18-91-73-90-77 1-110 51-110 125 0 49 23 75 73 75 72-1 104-45 110-110" id="ae"/><path fill="#333" d="M51-231l6-30h31l-6 30H51zM33 24C28 60 2 84-40 72c3-12-1-29 18-22C-5 49-1 37 2 19l41-209h32" id="af"/><path fill="#333" d="M248-139C247-14 144 9 11 0l48-248c105-6 190 8 189 109zm-34 0c1-70-52-87-126-82L50-27c98 7 163-21 164-112" id="ag"/><g id="o"><use transform="matrix(0.05,0,0,0.05,0,0)" xlink:href="#ae"/><use transform="matrix(0.05,0,0,0.05,14,0)" xlink:href="#W"/><use transform="matrix(0.05,0,0,0.05,24,0)" xlink:href="#af"/><use transform="matrix(0.05,0,0,0.05,27.950000000000003,0)" xlink:href="#I"/><use transform="matrix(0.05,0,0,0.05,37.95,0)" xlink:href="#V"/><use transform="matrix(0.05,0,0,0.05,46.95,0)" xlink:href="#H"/><use transform="matrix(0.05,0,0,0.05,51.95,0)" xlink:href="#T"/><use transform="matrix(0.05,0,0,0.05,56.95,0)" xlink:href="#ag"/></g><path fill="#333" d="M119 0H84L31-248h34l41 218 126-218h36" id="ah"/><g id="p"><use transform="matrix(0.05,0,0,0.05,0,0)" xlink:href="#H"/><use transform="matrix(0.05,0,0,0.05,5,0)" xlink:href="#R"/><use transform="matrix(0.05,0,0,0.05,15,0)" xlink:href="#H"/><use transform="matrix(0.05,0,0,0.05,20,0)" xlink:href="#D"/><use transform="matrix(0.05,0,0,0.05,30,0)" xlink:href="#K"/><use transform="matrix(0.05,0,0,0.05,33.95,0)" xlink:href="#ah"/><use transform="matrix(0.05,0,0,0.05,45.300000000000004,0)" xlink:href="#D"/><use transform="matrix(0.05,0,0,0.05,55.300000000000004,0)" xlink:href="#K"/><use transform="matrix(0.05,0,0,0.05,59.25,0)" xlink:href="#P"/><use transform="matrix(0.05,0,0,0.05,69.25,0)" xlink:href="#I"/></g><g id="q"><use transform="matrix(0.05,0,0,0.05,0,0)" xlink:href="#V"/><use transform="matrix(0.05,0,0,0.05,9,0)" xlink:href="#R"/><use transform="matrix(0.05,0,0,0.05,19,0)" xlink:href="#G"/><use transform="matrix(0.05,0,0,0.05,33.95,0)" xlink:href="#G"/><use transform="matrix(0.05,0,0,0.05,48.900000000000006,0)" xlink:href="#R"/><use transform="matrix(0.05,0,0,0.05,58.900000000000006,0)" xlink:href="#Y"/><use transform="matrix(0.05,0,0,0.05,68.9,0)" xlink:href="#J"/><use transform="matrix(0.05,0,0,0.05,72.85000000000001,0)" xlink:href="#H"/><use transform="matrix(0.05,0,0,0.05,77.85000000000001,0)" xlink:href="#J"/><use transform="matrix(0.05,0,0,0.05,81.80000000000001,0)" xlink:href="#I"/><use transform="matrix(0.05,0,0,0.05,91.80000000000001,0)" xlink:href="#ab"/></g><g id="r"><use transform="matrix(0.05,0,0,0.05,0,0)" xlink:href="#ae"/><use transform="matrix(0.05,0,0,0.05,14,0)" xlink:href="#W"/><use transform="matrix(0.05,0,0,0.05,24,0)" xlink:href="#af"/><use transform="matrix(0.05,0,0,0.05,27.950000000000003,0)" xlink:href="#I"/><use transform="matrix(0.05,0,0,0.05,37.95,0)" xlink:href="#V"/><use transform="matrix(0.05,0,0,0.05,46.95,0)" xlink:href="#H"/></g><path fill="#333" d="M187 0l-14-72H61L19 0h-37l149-248h38L221 0h-34zm-19-99l-22-123L76-99h92" id="ai"/><g id="s"><use transform="matrix(0.05,0,0,0.05,0,0)" xlink:href="#ai"/><use transform="matrix(0.05,0,0,0.05,12,0)" xlink:href="#C"/><use transform="matrix(0.05,0,0,0.05,17.95,0)" xlink:href="#C"/><use transform="matrix(0.05,0,0,0.05,23.9,0)" xlink:href="#D"/><use transform="matrix(0.05,0,0,0.05,33.9,0)" xlink:href="#aa"/></g><g id="t"><use transform="matrix(0.05,0,0,0.05,0,0)" xlink:href="#V"/><use transform="matrix(0.05,0,0,0.05,9,0)" xlink:href="#R"/><use transform="matrix(0.05,0,0,0.05,19,0)" xlink:href="#G"/><use transform="matrix(0.05,0,0,0.05,33.95,0)" xlink:href="#G"/><use transform="matrix(0.05,0,0,0.05,48.900000000000006,0)" xlink:href="#R"/><use transform="matrix(0.05,0,0,0.05,58.900000000000006,0)" xlink:href="#Y"/><use transform="matrix(0.05,0,0,0.05,68.9,0)" xlink:href="#J"/><use transform="matrix(0.05,0,0,0.05,72.85000000000001,0)" xlink:href="#H"/><use transform="matrix(0.05,0,0,0.05,77.85000000000001,0)" xlink:href="#aa"/></g><g id="u"><use transform="matrix(0.05,0,0,0.05,0,0)" xlink:href="#G"/><use transform="matrix(0.05,0,0,0.05,14.950000000000001,0)" xlink:href="#D"/><use transform="matrix(0.05,0,0,0.05,24.950000000000003,0)" xlink:href="#H"/><use transform="matrix(0.05,0,0,0.05,29.950000000000003,0)" xlink:href="#I"/><use transform="matrix(0.05,0,0,0.05,39.95,0)" xlink:href="#C"/><use transform="matrix(0.05,0,0,0.05,45.900000000000006,0)" xlink:href="#J"/><use transform="matrix(0.05,0,0,0.05,49.85000000000001,0)" xlink:href="#D"/><use transform="matrix(0.05,0,0,0.05,59.85,0)" xlink:href="#K"/><use transform="matrix(0.05,0,0,0.05,63.80000000000001,0)" xlink:href="#F"/><use transform="matrix(0.05,0,0,0.05,69.75000000000001,0)" xlink:href="#J"/><use transform="matrix(0.05,0,0,0.05,73.70000000000002,0)" xlink:href="#Y"/></g><g id="v"><use transform="matrix(0.05,0,0,0.05,0,0)" xlink:href="#E"/><use transform="matrix(0.05,0,0,0.05,12.950000000000001,0)" xlink:href="#I"/><use transform="matrix(0.05,0,0,0.05,22.950000000000003,0)" xlink:href="#J"/><use transform="matrix(0.05,0,0,0.05,26.900000000000002,0)" xlink:href="#N"/><use transform="matrix(0.05,0,0,0.05,36.900000000000006,0)" xlink:href="#U"/><use transform="matrix(0.05,0,0,0.05,46.900000000000006,0)" xlink:href="#H"/></g><g id="w"><use transform="matrix(0.05,0,0,0.05,0,0)" xlink:href="#O"/><use transform="matrix(0.05,0,0,0.05,9,0)" xlink:href="#D"/><use transform="matrix(0.05,0,0,0.05,19,0)" xlink:href="#K"/><use transform="matrix(0.05,0,0,0.05,22.95,0)" xlink:href="#P"/><use transform="matrix(0.05,0,0,0.05,32.95,0)" xlink:href="#I"/></g><g id="x"><use transform="matrix(0.05,0,0,0.05,0,0)" xlink:href="#W"/><use transform="matrix(0.05,0,0,0.05,10,0)" xlink:href="#J"/><use transform="matrix(0.05,0,0,0.05,13.949999999999998,0)" xlink:href="#L"/><use transform="matrix(0.05,0,0,0.05,23.95,0)" xlink:href="#ab"/></g><g id="y"><use transform="matrix(0.05,0,0,0.05,0,0)" xlink:href="#W"/><use transform="matrix(0.05,0,0,0.05,10,0)" xlink:href="#J"/><use transform="matrix(0.05,0,0,0.05,13.949999999999998,0)" xlink:href="#L"/><use transform="matrix(0.05,0,0,0.05,23.95,0)" xlink:href="#F"/><use transform="matrix(0.05,0,0,0.05,29.899999999999995,0)" xlink:href="#V"/><use transform="matrix(0.05,0,0,0.05,38.9,0)" xlink:href="#R"/><use transform="matrix(0.05,0,0,0.05,48.9,0)" xlink:href="#K"/><use transform="matrix(0.05,0,0,0.05,52.85,0)" xlink:href="#R"/><use transform="matrix(0.05,0,0,0.05,62.85,0)" xlink:href="#C"/></g><g id="z"><use transform="matrix(0.05,0,0,0.05,0,0)" xlink:href="#E"/><use transform="matrix(0.05,0,0,0.05,12.950000000000001,0)" xlink:href="#D"/><use transform="matrix(0.05,0,0,0.05,22.950000000000003,0)" xlink:href="#ab"/><use transform="matrix(0.05,0,0,0.05,31.950000000000003,0)" xlink:href="#H"/><use transform="matrix(0.05,0,0,0.05,36.95,0)" xlink:href="#I"/><use transform="matrix(0.05,0,0,0.05,46.95,0)" xlink:href="#F"/><use transform="matrix(0.05,0,0,0.05,52.900000000000006,0)" xlink:href="#R"/><use transform="matrix(0.05,0,0,0.05,62.900000000000006,0)" xlink:href="#W"/><use transform="matrix(0.05,0,0,0.05,72.9,0)" xlink:href="#af"/><use transform="matrix(0.05,0,0,0.05,76.85000000000001,0)" xlink:href="#I"/><use transform="matrix(0.05,0,0,0.05,86.85000000000001,0)" xlink:href="#V"/><use transform="matrix(0.05,0,0,0.05,95.85000000000001,0)" xlink:href="#H"/></g><g id="A"><use transform="matrix(0.05,0,0,0.05,0,0)" xlink:href="#W"/><use transform="matrix(0.05,0,0,0.05,10,0)" xlink:href="#J"/><use transform="matrix(0.05,0,0,0.05,13.949999999999998,0)" xlink:href="#L"/></g><g id="B"><use transform="matrix(0.05,0,0,0.05,0,0)" xlink:href="#G"/><use transform="matrix(0.05,0,0,0.05,14.950000000000001,0)" xlink:href="#D"/><use transform="matrix(0.05,0,0,0.05,24.950000000000003,0)" xlink:href="#H"/><use transform="matrix(0.05,0,0,0.05,29.950000000000003,0)" xlink:href="#I"/><use transform="matrix(0.05,0,0,0.05,39.95,0)" xlink:href="#C"/><use transform="matrix(0.05,0,0,0.05,45.900000000000006,0)" xlink:href="#J"/><use transform="matrix(0.05,0,0,0.05,49.85000000000001,0)" xlink:href="#D"/><use transform="matrix(0.05,0,0,0.05,59.85,0)" xlink:href="#K"/></g></defs></g></svg>